<svg width="30" height="20" viewBox="0 0 30 20" fill="none" xmlns="http://www.w3.org/2000/svg">
<g id="&#195;&#145;&#195;&#171;&#195;&#174;&#195;&#169; 1">
<g id="Group">
<g id="Group_2">
<path id="Vector" d="M30 0H0V20H30V0Z" fill="white"/>
<path id="Vector_2" d="M19.5 0H0V12.8573L19.5 0Z" fill="#1946B4"/>
<path id="Vector_3" d="M10.5 19.9999H30V7.14258L10.5 19.9999Z" fill="#FF9600"/>
</g>
<path id="Vector_4" d="M20.714 10.0001L17.2507 10.3967L18.154 10.9194L17.1113 10.8747L17.88 11.5807L16.872 11.3114L19.04 14.0407L16.3107 11.8727L16.58 12.8807L15.874 12.1121L15.9187 13.1547L15.396 12.2514L14.9993 15.7147L14.6027 12.2514L14.08 13.1547L14.1247 12.1121L13.4187 12.8807L13.688 11.8727L10.9587 14.0407L13.1267 11.3114L12.1187 11.5807L12.8873 10.8747L11.8447 10.9194L12.748 10.3967L9.28467 10.0001L12.748 9.6034L11.8447 9.08073L12.8873 9.1254L12.1187 8.4194L13.1267 8.68873L10.9587 5.9594L13.688 8.1274L13.4187 7.1194L14.1247 7.88807L14.08 6.8454L14.6027 7.74873L14.9993 4.2854L15.396 7.74873L15.9187 6.8454L15.874 7.88807L16.58 7.1194L16.3107 8.1274L19.04 5.9594L16.872 8.68873L17.88 8.4194L17.1113 9.1254L18.154 9.08073L17.2507 9.6034L20.714 10.0001Z" fill="#FF9600"/>
</g>
</g>
</svg>
