<svg width="30" height="20" viewBox="0 0 30 20" fill="none" xmlns="http://www.w3.org/2000/svg">
<g id="&#195;&#145;&#195;&#171;&#195;&#174;&#195;&#169; 1">
<g id="Group">
<path id="Vector" d="M30 0H0V20H30V0Z" fill="white"/>
<path id="Vector_2" d="M15.0001 4.44995L17.8541 9.39528L20.7081 14.3406H9.29346L12.1475 9.39528L15.0015 4.44995H15.0001Z" fill="#FF0000"/>
<path id="Vector_3" d="M9.84855 12.394L8.84521 11.8133L8.88122 11.7527L8.92988 11.68L9.81255 12.188L10.1025 11.68L10.1632 11.716L10.2239 11.752L9.84922 12.3927L9.84855 12.394ZM10.3079 11.596L9.30455 11.0153L9.34055 10.9547L9.38922 10.882L10.3925 11.4627L10.3565 11.5353L10.3079 11.596ZM10.5252 11.2333L9.52188 10.6527L9.55788 10.58L9.77522 10.2053C9.82388 10.1207 9.88388 10.072 9.95655 10.036C10.0292 10.012 10.1019 10.024 10.1739 10.06C10.2585 10.1087 10.3072 10.1807 10.3192 10.2653V10.326C10.3552 10.302 10.3799 10.29 10.4159 10.2653C10.5005 10.2293 10.5852 10.2413 10.6699 10.2893C10.7665 10.338 10.8152 10.41 10.8392 10.5067C10.8512 10.6033 10.8272 10.712 10.7665 10.8213L10.5612 11.16L10.5252 11.2327V11.2333ZM9.71522 10.5807L10.0299 10.762L10.1632 10.52C10.2119 10.4473 10.2239 10.3867 10.2239 10.3387C10.2119 10.29 10.1752 10.242 10.1272 10.2053C10.0785 10.1813 10.0305 10.1813 9.98188 10.1933C9.94588 10.2173 9.89722 10.254 9.86122 10.3267L9.71588 10.5807H9.71522ZM10.1385 10.8227L10.4892 11.028L10.6465 10.75C10.6952 10.6773 10.7072 10.6047 10.6952 10.5567C10.6952 10.496 10.6592 10.46 10.5865 10.4233C10.5379 10.3873 10.4779 10.3873 10.4292 10.3993C10.3805 10.4233 10.3325 10.484 10.2959 10.5567L10.1385 10.8227ZM11.0699 10.2787L10.0665 9.69802L10.4899 8.96068L10.5505 8.99668L10.6112 9.03268L10.2725 9.63735L10.5745 9.80668L10.8892 9.26268L10.9499 9.29868L11.0105 9.33468L10.6959 9.87868L11.0345 10.072L11.3852 9.46735L11.4459 9.50335L11.5065 9.53935L11.0712 10.2767L11.0699 10.2787ZM11.6139 9.34735L10.6105 8.76668L10.6465 8.69402L10.8765 8.29468C10.9372 8.18602 11.0099 8.12535 11.0939 8.08935C11.1665 8.06535 11.2512 8.07735 11.3359 8.12535C11.4325 8.17402 11.4812 8.24602 11.4932 8.33068C11.5052 8.35468 11.5052 8.37935 11.5052 8.40335L11.5292 8.37935C11.6019 8.34335 11.6745 8.34335 11.7592 8.39135L11.9405 8.48802C11.9765 8.51202 12.0012 8.51202 12.0132 8.51202C12.0372 8.51202 12.0492 8.51202 12.0739 8.50002L12.0979 8.51202L12.0012 8.68135C11.9892 8.66935 11.9652 8.66935 11.9285 8.64535C11.8925 8.63335 11.8559 8.60935 11.8079 8.59668L11.7232 8.54802C11.6625 8.51202 11.6145 8.49935 11.5659 8.51202C11.5299 8.52402 11.4812 8.57268 11.4452 8.63268L11.2639 8.95935L11.6992 9.21335L11.6505 9.27402L11.6145 9.34668L11.6139 9.34735ZM11.1425 8.88802L11.3359 8.54935C11.3719 8.48868 11.3845 8.44068 11.3719 8.39202C11.3599 8.34335 11.3232 8.30735 11.2632 8.27135C11.2145 8.23535 11.1545 8.23535 11.1179 8.24735C11.0692 8.25935 11.0332 8.29602 10.9845 8.36802L10.8032 8.69468L11.1419 8.88802H11.1425ZM12.3399 8.10202L11.4452 7.58202L11.2519 7.92068L11.1912 7.89668L11.1305 7.86068L11.6019 7.03868L11.6625 7.07468L11.7232 7.11068L11.5299 7.44935L12.4125 7.95735L12.3765 8.03002L12.3405 8.10268L12.3399 8.10202ZM12.6299 7.58202L11.8439 6.61468L11.8925 6.54202L11.9412 6.46935L13.1505 6.68668L13.1145 6.75935L13.0659 6.83202L12.7152 6.75935L12.4852 7.17068L12.7152 7.43668L12.6792 7.50935L12.6305 7.58202H12.6299ZM12.0372 6.63868L12.3879 7.05002L12.5692 6.73535L12.0372 6.63868ZM12.8592 5.53802C12.7985 5.50202 12.7259 5.50202 12.6779 5.52602C12.6172 5.55002 12.5572 5.59868 12.5205 5.67135C12.4719 5.74402 12.4599 5.81668 12.4599 5.87668C12.4719 5.92535 12.4959 5.97335 12.5565 6.01002C12.5925 6.03402 12.6292 6.03402 12.6652 6.02202C12.7012 5.99802 12.7499 5.96135 12.8105 5.88868L12.9559 5.74335C13.0405 5.65868 13.1012 5.61002 13.1732 5.59802C13.2459 5.57402 13.3185 5.59802 13.3905 5.64668C13.4872 5.69535 13.5359 5.76735 13.5479 5.86402C13.5599 5.97268 13.5359 6.08135 13.4632 6.20268C13.3905 6.32335 13.3059 6.40802 13.1972 6.45668C13.1005 6.49268 12.9919 6.48068 12.8825 6.42068V6.40868L12.9552 6.28802C13.0279 6.32402 13.1005 6.33668 13.1605 6.30002C13.2332 6.27602 13.2939 6.21535 13.3419 6.13068C13.3905 6.04602 13.4145 5.97335 13.4145 5.91335C13.4145 5.85335 13.3785 5.80468 13.3299 5.78002C13.2812 5.74402 13.2332 5.74402 13.1965 5.75602C13.1479 5.76802 13.0999 5.81668 13.0272 5.88935L12.8819 6.04668C12.8092 6.11935 12.7485 6.16735 12.6885 6.18002C12.6285 6.19268 12.5679 6.18002 12.4952 6.14402C12.3985 6.09535 12.3499 6.01068 12.3259 5.91402C12.3139 5.81735 12.3379 5.70868 12.3985 5.59935C12.4592 5.49002 12.5439 5.41802 12.6405 5.38202C12.7372 5.34602 12.8339 5.35802 12.9305 5.40602L12.8579 5.53935L12.8592 5.53802Z" fill="black"/>
<path id="Vector_4" d="M12.6298 15.9853V14.9573H12.2432V14.824H13.1865V14.9573H12.7872V15.9853H12.6298ZM13.2345 15.9853L13.6698 14.8246H13.8512L14.2625 15.9853H14.0932L13.9725 15.6466H13.5132L13.3925 15.9853H13.2352H13.2345ZM13.7545 14.994L13.5612 15.502H13.9238L13.7545 14.994ZM14.5525 15.9853H14.4072V14.8246H14.6245L14.9632 15.804L15.2898 14.8246H15.5198V15.9853H15.3625V15.006L15.0358 15.9853H14.8905L14.5518 15.006V15.9853H14.5525ZM15.7738 15.9853V14.8246H16.6205V14.958H15.9312V15.3206H16.5598V15.454H15.9312V15.8406H16.6325V15.986H15.7738V15.9853ZM16.9832 15.9853H16.8378V14.8246H17.0312L17.6118 15.768V14.8246H17.7572V15.9853H17.5878L16.9832 15.03V15.9853Z" fill="black"/>
<path id="Vector_5" d="M16.5116 6.28798L16.5476 6.05798C16.4629 6.00931 16.3902 5.93731 16.3302 5.84065C16.2456 5.69531 16.2216 5.55065 16.2696 5.40531C16.3182 5.25998 16.4149 5.13931 16.5716 5.04265C16.7289 4.95798 16.8862 4.92198 17.0309 4.95798C17.1882 4.99398 17.2969 5.07865 17.3816 5.22398C17.4662 5.36931 17.4902 5.52598 17.4422 5.67131C17.3936 5.81665 17.2969 5.93731 17.1402 6.02198C16.9829 6.11865 16.8256 6.14265 16.6809 6.10665H16.6569V6.14265C16.6449 6.25131 16.6329 6.29998 16.6329 6.29998L16.5122 6.28798H16.5116ZM16.5962 5.75598L16.7169 5.76798L16.6809 5.94931L16.7049 5.96131C16.8136 5.97331 16.9349 5.94931 17.0556 5.88865C17.1762 5.81598 17.2609 5.71931 17.2976 5.61065C17.3336 5.51398 17.3216 5.40531 17.2616 5.29598C17.2016 5.18665 17.1162 5.12665 17.0076 5.11465C16.8989 5.09065 16.7776 5.11465 16.6569 5.18731C16.5362 5.25998 16.4516 5.34465 16.4149 5.45331C16.3789 5.56198 16.3909 5.67065 16.4509 5.76798C16.4749 5.82865 16.5236 5.87665 16.5716 5.90131L16.5956 5.75598H16.5962ZM17.5636 7.06198C17.4302 7.13465 17.3216 7.14665 17.2009 7.12265C17.0922 7.09865 17.0076 7.01398 16.9349 6.89265C16.8622 6.75931 16.8382 6.65065 16.8622 6.54198C16.8982 6.43331 16.9709 6.33665 17.1042 6.26398L17.7329 5.90131L17.7816 5.96198L17.8176 6.03465L17.1889 6.39731C17.0922 6.45798 17.0436 6.51798 17.0196 6.59065C16.9956 6.66331 17.0076 6.73598 17.0556 6.82065C17.1042 6.90531 17.1642 6.95398 17.2369 6.97798C17.3096 6.98998 17.3942 6.96598 17.4909 6.91731L18.1196 6.55465L18.1556 6.62731L18.1916 6.68798L17.5629 7.06265L17.5636 7.06198ZM17.6242 8.02931L17.9142 7.85998L17.6969 7.48531L17.3462 7.53398L17.2976 7.46131L17.2616 7.38865L18.5069 7.21931L18.7002 7.56998L19.0149 8.11398L18.9542 8.14998L18.8936 8.18598L18.5789 7.64198L18.2769 7.82331L18.5669 8.31931L18.5062 8.35531L18.4456 8.39131L18.1556 7.88331L17.8169 8.07665L18.1436 8.64465L18.0829 8.68065L18.0222 8.71665L17.6956 8.14865L17.6229 8.02798L17.6242 8.02931ZM18.4342 7.37665L17.8536 7.46131L18.0349 7.78798L18.5062 7.50998L18.4336 7.37665H18.4342ZM19.4136 9.48065C19.4742 9.43198 19.5102 9.38398 19.5222 9.32331C19.5222 9.25065 19.5102 9.18998 19.4736 9.11798C19.4249 9.03331 19.3769 8.98465 19.3282 8.96065C19.2676 8.93665 19.2196 8.94865 19.1589 8.98465C19.1229 8.99665 19.0982 9.03331 19.0982 9.06931C19.0862 9.10531 19.0982 9.16598 19.1342 9.26265L19.1829 9.45598C19.2189 9.56465 19.2316 9.64931 19.2069 9.72198C19.1829 9.78265 19.1342 9.84265 19.0616 9.87931C18.9649 9.93998 18.8682 9.93998 18.7836 9.90331C18.6869 9.86731 18.6022 9.79465 18.5416 9.67331C18.4569 9.53998 18.4329 9.41931 18.4569 9.31065C18.4689 9.20198 18.5296 9.11731 18.6382 9.05665H18.6502L18.7229 9.17731C18.6502 9.22598 18.6022 9.28598 18.5896 9.35865C18.5896 9.43131 18.6016 9.51598 18.6622 9.60065C18.7109 9.68531 18.7589 9.74598 18.8076 9.76998C18.8682 9.79398 18.9162 9.79398 18.9769 9.75798C19.0256 9.73398 19.0496 9.69731 19.0616 9.64931C19.0616 9.61331 19.0496 9.54065 19.0256 9.44398L18.9649 9.25065C18.9289 9.14198 18.9289 9.06931 18.9409 9.00865C18.9529 8.94798 19.0016 8.89998 19.0616 8.86331C19.1582 8.80265 19.2549 8.79065 19.3516 8.82731C19.4482 8.86331 19.5209 8.93598 19.5816 9.04465C19.6542 9.15331 19.6782 9.26198 19.6542 9.35931C19.6422 9.45598 19.5816 9.54065 19.4849 9.60131L19.4122 9.48065H19.4136ZM18.8936 10.2306L19.8969 9.64998L20.3202 10.3873L20.2596 10.4113L20.1989 10.4473L19.8602 9.85465L19.5456 10.024L19.8722 10.58L19.8116 10.616L19.7509 10.64L19.4242 10.096L19.0976 10.2893L19.4482 10.894L19.3876 10.93L19.3269 10.966L18.8916 10.2286L18.8936 10.2306ZM19.4376 11.162L20.4409 10.5813L20.4769 10.654L20.7069 11.0533C20.7676 11.162 20.7916 11.2586 20.7796 11.3313C20.7676 11.416 20.7189 11.4886 20.6222 11.5366C20.5376 11.5853 20.4529 11.5973 20.3682 11.5726C20.3442 11.5606 20.3322 11.5486 20.3076 11.5366V11.5726C20.3076 11.6453 20.2716 11.718 20.1869 11.766L20.0056 11.8746C19.9816 11.8986 19.9569 11.9106 19.9569 11.9233C19.9449 11.9353 19.9329 11.9593 19.9449 11.984L19.9209 11.996L19.8242 11.8266C19.8242 11.8266 19.8482 11.8026 19.8849 11.778C19.9089 11.754 19.9456 11.7293 19.9936 11.7053L20.0662 11.6566C20.1269 11.6206 20.1629 11.584 20.1749 11.536C20.1869 11.4873 20.1749 11.4393 20.1389 11.3666L19.9456 11.052L19.5102 11.294L19.4742 11.2333L19.4382 11.1606L19.4376 11.162ZM20.0662 10.9806L20.2596 11.3193C20.2956 11.38 20.3322 11.416 20.3802 11.428C20.4289 11.452 20.4769 11.44 20.5376 11.404C20.5982 11.368 20.6342 11.3313 20.6342 11.2833C20.6462 11.2346 20.6342 11.1746 20.5982 11.114L20.4049 10.7873L20.0662 10.9806ZM19.9576 12.0686L21.1909 11.8753L21.2269 11.948L21.2756 12.0326L20.4776 12.964L20.4416 12.8913L20.3929 12.8186L20.6229 12.5526L20.3929 12.1533L20.0422 12.214L20.0062 12.1413L19.9576 12.0686ZM21.0822 12.0326L20.5382 12.1293L20.7196 12.444L21.0822 12.0326Z" fill="black"/>
</g>
</g>
</svg>
