<svg width="30" height="20" viewBox="0 0 30 20" fill="none" xmlns="http://www.w3.org/2000/svg">
<g id="&#195;&#145;&#195;&#171;&#195;&#174;&#195;&#169; 1">
<g id="Group">
<path id="Vector" d="M30 0H0V20H30V0Z" fill="white"/>
<g id="Clip path group">
<mask id="mask0_620_919" style="mask-type:luminance" maskUnits="userSpaceOnUse" x="0" y="0" width="30" height="20">
<g id="clippath">
<path id="Vector_2" d="M30 0H0V20H30V0Z" fill="white"/>
</g>
</mask>
<g mask="url(#mask0_620_919)">
<g id="Group_2">
<path id="Vector_3" d="M30 20H0V18.4613H30V20ZM30 16.9233H0V15.3847H30V16.9233ZM30 13.8467H0V12.308H30V13.8467ZM30 10.77H0V9.23133H30V10.77ZM30 7.69333H0V6.15467H30V7.69333ZM30 4.61667H0V3.078H30V4.61667ZM30 1.54H0V0H30V1.53867V1.54Z" fill="#212125"/>
</g>
</g>
</g>
<path id="Vector_4" d="M11.5387 0H0V7.692H11.5387V0Z" fill="#C40008"/>
<path id="Vector_5" d="M1.5388 0.384766L1.18213 1.4821L1.7308 1.6601L1.5388 0.384766Z" fill="#FFEC00"/>
<path id="Vector_6" d="M1.53868 0.384766L1.89535 1.4821L1.34668 1.6601L1.53868 0.384766Z" fill="#FFEC00"/>
<path id="Vector_7" d="M2.63593 1.18188H1.48193V1.75855L2.63593 1.18188Z" fill="#FFEC00"/>
<path id="Vector_8" d="M2.63595 1.18188L1.70261 1.85988L1.36328 1.39322L2.63595 1.18188Z" fill="#FFEC00"/>
<path id="Vector_9" d="M0.441406 1.18188L1.37474 1.85988L1.71407 1.39322L0.441406 1.18188Z" fill="#FFEC00"/>
<path id="Vector_10" d="M0.441406 1.18188H1.59541V1.75855L0.441406 1.18188Z" fill="#FFEC00"/>
<path id="Vector_11" d="M2.21686 2.47209L1.86019 1.37476L1.31152 1.55276L2.21686 2.47209Z" fill="#FFEC00"/>
<path id="Vector_12" d="M2.21654 2.47206L1.2832 1.79406L1.62254 1.32739L2.2172 2.47273L2.21654 2.47206Z" fill="#FFEC00"/>
<path id="Vector_13" d="M0.860042 2.47206L1.79338 1.79406L1.45404 1.32739L0.859375 2.47273L0.860042 2.47206Z" fill="#FFEC00"/>
<path id="Vector_14" d="M0.859863 2.47209L1.21653 1.37476L1.7652 1.55276L0.859863 2.47209Z" fill="#FFEC00"/>
<path id="Vector_15" d="M1.5388 5L1.18213 6.09733L1.7308 6.27533L1.5388 5Z" fill="#FFEC00"/>
<path id="Vector_16" d="M1.53868 5L1.89535 6.09733L1.34668 6.27533L1.53868 5Z" fill="#FFEC00"/>
<path id="Vector_17" d="M2.63593 5.79736H1.48193V6.37403L2.63593 5.79736Z" fill="#FFEC00"/>
<path id="Vector_18" d="M2.63595 5.79736L1.70261 6.47536L1.36328 6.0087L2.63595 5.79736Z" fill="#FFEC00"/>
<path id="Vector_19" d="M0.441406 5.79736L1.37474 6.47536L1.71407 6.0087L0.441406 5.79736Z" fill="#FFEC00"/>
<path id="Vector_20" d="M0.441406 5.79736H1.59541V6.37403L0.441406 5.79736Z" fill="#FFEC00"/>
<path id="Vector_21" d="M2.21686 7.08732L1.86019 5.98999L1.31152 6.16799L2.21686 7.08732Z" fill="#FFEC00"/>
<path id="Vector_22" d="M2.21654 7.08729L1.2832 6.40929L1.62254 5.94263L2.2172 7.08796L2.21654 7.08729Z" fill="#FFEC00"/>
<path id="Vector_23" d="M0.860042 7.08729L1.79338 6.40929L1.45404 5.94263L0.859375 7.08796L0.860042 7.08729Z" fill="#FFEC00"/>
<path id="Vector_24" d="M0.859863 7.08732L1.21653 5.98999L1.7652 6.16799L0.859863 7.08732Z" fill="#FFEC00"/>
<path id="Vector_25" d="M10.0002 0.384766L9.64355 1.4821L10.1922 1.6601L10.0002 0.384766Z" fill="#FFEC00"/>
<path id="Vector_26" d="M10.0001 0.384766L10.3568 1.4821L9.80811 1.6601L10.0001 0.384766Z" fill="#FFEC00"/>
<path id="Vector_27" d="M11.0974 1.18188H9.94336V1.75855L11.0974 1.18188Z" fill="#FFEC00"/>
<path id="Vector_28" d="M11.0974 1.18188L10.164 1.85988L9.82471 1.39322L11.0974 1.18188Z" fill="#FFEC00"/>
<path id="Vector_29" d="M8.90283 1.18188L9.83617 1.85988L10.1755 1.39322L8.90283 1.18188Z" fill="#FFEC00"/>
<path id="Vector_30" d="M8.90283 1.18188H10.0568V1.75855L8.90283 1.18188Z" fill="#FFEC00"/>
<path id="Vector_31" d="M10.6778 2.47209L10.3211 1.37476L9.77246 1.55276L10.6778 2.47209Z" fill="#FFEC00"/>
<path id="Vector_32" d="M10.678 2.47206L9.74463 1.79406L10.084 1.32739L10.6786 2.47273L10.678 2.47206Z" fill="#FFEC00"/>
<path id="Vector_33" d="M9.32196 2.47206L10.2553 1.79406L9.91596 1.32739L9.32129 2.47273L9.32196 2.47206Z" fill="#FFEC00"/>
<path id="Vector_34" d="M9.32178 2.47209L9.67844 1.37476L10.2271 1.55276L9.32178 2.47209Z" fill="#FFEC00"/>
<path id="Vector_35" d="M10.0002 5L9.64355 6.09733L10.1922 6.27533L10.0002 5Z" fill="#FFEC00"/>
<path id="Vector_36" d="M10.0001 5L10.3568 6.09733L9.80811 6.27533L10.0001 5Z" fill="#FFEC00"/>
<path id="Vector_37" d="M11.0974 5.79736H9.94336V6.37403L11.0974 5.79736Z" fill="#FFEC00"/>
<path id="Vector_38" d="M11.0974 5.79736L10.164 6.47536L9.82471 6.0087L11.0974 5.79736Z" fill="#FFEC00"/>
<path id="Vector_39" d="M8.90283 5.79736L9.83617 6.47536L10.1755 6.0087L8.90283 5.79736Z" fill="#FFEC00"/>
<path id="Vector_40" d="M8.90283 5.79736H10.0568V6.37403L8.90283 5.79736Z" fill="#FFEC00"/>
<path id="Vector_41" d="M10.6778 7.08732L10.3211 5.98999L9.77246 6.16799L10.6778 7.08732Z" fill="#FFEC00"/>
<path id="Vector_42" d="M10.678 7.08729L9.74463 6.40929L10.084 5.94263L10.6786 7.08796L10.678 7.08729Z" fill="#FFEC00"/>
<path id="Vector_43" d="M9.32196 7.08729L10.2553 6.40929L9.91596 5.94263L9.32129 7.08796L9.32196 7.08729Z" fill="#FFEC00"/>
<path id="Vector_44" d="M9.32178 7.08732L9.67844 5.98999L10.2271 6.16799L9.32178 7.08732Z" fill="#FFEC00"/>
<path id="Vector_45" d="M8.8462 3.84595C8.8462 5.54529 7.46887 6.92262 5.76954 6.92262C4.0702 6.92262 2.69287 5.54529 2.69287 3.84595C2.69287 2.14662 4.0702 0.769287 5.76954 0.769287C7.46887 0.769287 8.8462 2.14662 8.8462 3.84595Z" fill="white"/>
<path id="Vector_46" d="M3.37051 3.35343C3.37785 3.36743 3.39185 3.37476 3.40251 3.38543C3.40985 3.39609 3.41651 3.41009 3.42385 3.42476C3.43118 3.43876 3.44518 3.44943 3.44518 3.46409C3.44518 3.47476 3.42718 3.48209 3.42385 3.49276C3.42385 3.50009 3.42385 3.50676 3.42718 3.51809L3.43785 3.52876C3.45185 3.52876 3.45585 3.51476 3.46651 3.50743H3.48451C3.49185 3.51076 3.49185 3.52543 3.49851 3.52543C3.50185 3.52876 3.50918 3.51476 3.51651 3.51876C3.52385 3.51876 3.53051 3.52209 3.53451 3.52943C3.54518 3.54409 3.54185 3.56143 3.55251 3.57609C3.55985 3.58676 3.57385 3.59009 3.58851 3.59409C3.59918 3.59409 3.61385 3.59076 3.62051 3.58343C3.63118 3.57276 3.63118 3.55876 3.63851 3.55143C3.64585 3.54409 3.65651 3.54809 3.66385 3.54409C3.67051 3.54076 3.67785 3.53343 3.68851 3.52943C3.69185 3.52609 3.70318 3.51543 3.70651 3.51876C3.71718 3.53276 3.71385 3.55076 3.71385 3.56476C3.71718 3.60743 3.70318 3.65409 3.71718 3.69343C3.72051 3.70743 3.74251 3.70409 3.75651 3.70076C3.77051 3.69743 3.78185 3.68276 3.79585 3.68276C3.81385 3.67943 3.83118 3.68276 3.84585 3.68276C3.86718 3.68609 3.89251 3.68609 3.91385 3.68609C3.93918 3.68943 3.96385 3.69343 3.98851 3.68609C3.99918 3.68609 4.00985 3.67209 4.01385 3.66076C4.02118 3.65343 4.01385 3.63943 4.02118 3.63209C4.02451 3.62876 4.03918 3.62876 4.04651 3.62876C4.05385 3.62876 4.05718 3.63943 4.06051 3.63609C4.07518 3.63276 4.08585 3.62143 4.09251 3.61476C4.10318 3.60409 4.10651 3.58609 4.11718 3.57876C4.12451 3.57543 4.13185 3.58943 4.13518 3.58609C4.14585 3.57876 4.14918 3.56476 4.15651 3.55409C4.16718 3.54343 4.18185 3.53276 4.19251 3.52876C4.21051 3.52143 4.23185 3.51809 4.24985 3.51476C4.26051 3.51476 4.26785 3.51143 4.27851 3.51143C4.28918 3.51143 4.29985 3.51476 4.31051 3.51476C4.31785 3.51476 4.32451 3.50743 4.33185 3.50743C4.33518 3.50409 4.34251 3.49676 4.34585 3.50409C4.35651 3.51476 4.35985 3.53609 4.35985 3.55009C4.35985 3.56409 4.34585 3.57143 4.34585 3.58209C4.34251 3.59676 4.34584 3.61076 4.34918 3.62143C4.35251 3.63209 4.36318 3.63609 4.36718 3.64676C4.37051 3.65743 4.37051 3.66809 4.36718 3.67876C4.36385 3.68609 4.34918 3.68209 4.34918 3.68943C4.34918 3.70343 4.35651 3.71476 4.35985 3.72476C4.36718 3.73876 4.36718 3.75343 4.37785 3.76743C4.38851 3.78543 4.40318 3.80276 4.42051 3.81409C4.43451 3.82476 4.45251 3.82476 4.46718 3.83209C4.47385 3.83876 4.47051 3.85676 4.48118 3.86409C4.49185 3.87143 4.50651 3.87143 4.51651 3.86743C4.53051 3.86743 4.54185 3.86409 4.55251 3.86009C4.55585 3.86009 4.55985 3.85343 4.56651 3.85343C4.58118 3.85676 4.59851 3.86743 4.61318 3.87476C4.62384 3.88143 4.62718 3.89609 4.63851 3.90343C4.64918 3.90676 4.65985 3.90009 4.66718 3.90676C4.68185 3.91009 4.68851 3.92809 4.70318 3.93209C4.71385 3.93943 4.72784 3.94276 4.73918 3.94276C4.74584 3.94609 4.75718 3.93943 4.76385 3.94609C4.77851 3.95676 4.78518 3.97809 4.80318 3.98876C4.81385 3.99609 4.83185 3.99943 4.84985 3.99609C4.85718 3.99276 4.85718 3.97476 4.86784 3.97476C4.88184 3.97143 4.89318 3.98209 4.90718 3.98543C4.91785 3.99276 4.92851 3.99943 4.93918 4.00676C4.95384 4.01409 4.97518 4.01743 4.98185 4.03209C4.98918 4.04276 4.97451 4.06076 4.97851 4.07476C4.98185 4.09276 4.99651 4.10676 5.00384 4.12476C5.00718 4.13543 5.00384 4.15343 5.00384 4.16743C5.00384 4.17076 5.00718 4.17409 5.00384 4.17809C4.99318 4.18143 4.98251 4.17476 4.97518 4.17809C4.97184 4.18143 4.97518 4.19209 4.97851 4.19609C4.98185 4.20343 4.99318 4.20676 4.99651 4.21743C5.00384 4.23143 5.00718 4.24943 5.00718 4.26743C5.01051 4.28209 5.00718 4.29609 5.01051 4.30676C5.01385 4.32143 5.02451 4.33543 5.03585 4.33876C5.06451 4.34609 5.09651 4.33876 5.12851 4.33876C5.15718 4.34209 5.18585 4.34209 5.21385 4.34209C5.22118 4.34543 5.23918 4.33476 5.23918 4.34543C5.24251 4.35609 5.22118 4.36343 5.21784 4.37743C5.21784 4.38809 5.22851 4.39543 5.23251 4.40276C5.23985 4.41676 5.23984 4.43476 5.24651 4.44543C5.25318 4.45609 5.26451 4.46009 5.27518 4.46676C5.28584 4.47743 5.29318 4.48809 5.30384 4.49876C5.31451 4.50943 5.32518 4.52343 5.33251 4.53809C5.33984 4.55209 5.33984 4.56676 5.33984 4.58409C5.33984 4.59876 5.33651 4.61276 5.32918 4.62676C5.32585 4.64476 5.31451 4.66276 5.30785 4.68009C5.30451 4.70143 5.29718 4.71943 5.28984 4.73743C5.28651 4.74809 5.27518 4.76276 5.27918 4.77343C5.28251 4.78409 5.29718 4.78409 5.30451 4.78743C5.30785 4.79476 5.31185 4.80143 5.30785 4.80543C5.30451 4.81276 5.29318 4.80543 5.28651 4.81276C5.27918 4.82009 5.27585 4.83409 5.27918 4.84476C5.27918 4.85876 5.28985 4.87009 5.29318 4.88409C5.29651 4.89143 5.30051 4.89809 5.30384 4.90943C5.30718 4.91676 5.31451 4.92343 5.31451 4.93409C5.31785 4.94876 5.31785 4.96276 5.31451 4.98076C5.31451 4.98809 5.31118 4.99476 5.30718 5.00609C5.30718 5.01343 5.31051 5.02409 5.31051 5.03076C5.31051 5.04143 5.30318 5.05209 5.30318 5.06276C5.30318 5.07343 5.30318 5.08809 5.31385 5.09476C5.32451 5.09809 5.33518 5.08409 5.34585 5.08409C5.35651 5.08409 5.37051 5.08743 5.38518 5.08743C5.39584 5.09076 5.40985 5.08743 5.42118 5.09076C5.43185 5.09076 5.43918 5.09809 5.44651 5.09809C5.45385 5.10143 5.46451 5.10543 5.47118 5.10543C5.47851 5.10209 5.47851 5.08009 5.48918 5.08409C5.49984 5.08409 5.49985 5.10209 5.51051 5.10876C5.52518 5.11609 5.54585 5.10876 5.56051 5.11609C5.57118 5.12676 5.57851 5.14809 5.58185 5.16276C5.59251 5.19143 5.59251 5.21609 5.59984 5.24476C5.60318 5.25943 5.60318 5.28076 5.61784 5.29143C5.62518 5.29876 5.64318 5.29876 5.65718 5.30209C5.67518 5.30209 5.69318 5.29476 5.70718 5.29876C5.72184 5.30209 5.74251 5.30943 5.74651 5.32343C5.75384 5.34143 5.73251 5.35943 5.73251 5.37676C5.73251 5.39076 5.74318 5.40143 5.73984 5.41609C5.73984 5.42676 5.72918 5.43743 5.72918 5.45143C5.72585 5.45876 5.73985 5.46209 5.73651 5.46943C5.73318 5.47676 5.72251 5.47276 5.71851 5.48009C5.71518 5.48743 5.71518 5.49809 5.71851 5.50876C5.71851 5.51943 5.71851 5.53009 5.72918 5.53409C5.74318 5.53743 5.76451 5.51943 5.77918 5.52676C5.79718 5.53743 5.80384 5.56276 5.81118 5.58009C5.81851 5.59076 5.82185 5.60543 5.82185 5.61609C5.81851 5.62343 5.80785 5.62676 5.80785 5.63409C5.80451 5.64476 5.81118 5.65543 5.81118 5.66943C5.81118 5.68009 5.80784 5.69076 5.80384 5.70143C5.79651 5.71543 5.79318 5.72676 5.78251 5.73743C5.77518 5.74476 5.76851 5.74809 5.75785 5.75209C5.74718 5.75543 5.73251 5.75209 5.71851 5.75543C5.70384 5.76276 5.69318 5.77676 5.68318 5.78409C5.67251 5.79143 5.66518 5.80209 5.65451 5.80943C5.64051 5.82009 5.62251 5.82743 5.60451 5.83809C5.59718 5.84543 5.59384 5.85609 5.58318 5.86676C5.57585 5.87743 5.56518 5.88809 5.55785 5.89876C5.55051 5.90609 5.54718 5.91276 5.53984 5.92009C5.52918 5.93076 5.51851 5.93409 5.50785 5.94143C5.50051 5.95209 5.49718 5.96676 5.48984 5.97343C5.48251 5.98409 5.47185 5.98809 5.46518 5.99876C5.45785 6.00943 5.45784 6.02743 5.44718 6.03809C5.43651 6.04876 5.41851 6.04543 5.41118 6.05609C5.40051 6.06343 5.40051 6.07743 5.39718 6.08809C5.39385 6.09543 5.38651 6.10609 5.39385 6.10943C5.40118 6.11676 5.41185 6.10209 5.41918 6.10609C5.42651 6.10609 5.42985 6.11676 5.43318 6.11676C5.44051 6.11676 5.44385 6.10943 5.44785 6.10609C5.45118 6.10276 5.45118 6.09543 5.45518 6.09143C5.46251 6.08809 5.47318 6.08476 5.48051 6.08476C5.48784 6.08476 5.48784 6.09543 5.49451 6.09876C5.49784 6.10209 5.50518 6.10209 5.50851 6.10609C5.51584 6.11276 5.51185 6.12409 5.51918 6.13076C5.52651 6.13809 5.54051 6.13809 5.54451 6.14143C5.55184 6.14876 5.55185 6.15943 5.55518 6.16609C5.55851 6.17676 5.56251 6.18743 5.56584 6.19143C5.56918 6.19476 5.57651 6.19476 5.58385 6.19143C5.58718 6.19143 5.59451 6.18809 5.60184 6.18409C5.60518 6.18076 5.60918 6.18076 5.60918 6.17676C5.61251 6.17343 5.60918 6.16609 5.60918 6.16276C5.61251 6.15943 5.61651 6.15943 5.61985 6.15943C5.62718 6.15943 5.64118 6.15943 5.64118 6.16609C5.64451 6.17343 5.63051 6.18076 5.62651 6.18743C5.62651 6.19476 5.62985 6.2021 5.63385 6.20543C5.64451 6.2201 5.65918 6.23409 5.67651 6.24143C5.68718 6.24876 5.70518 6.24876 5.71584 6.25543C5.72651 6.26276 5.73718 6.27343 5.74451 6.28076C5.75184 6.29143 5.75518 6.30209 5.76584 6.30943C5.77651 6.32009 5.79451 6.32009 5.80518 6.33476C5.81985 6.34543 5.81984 6.36676 5.83051 6.38076C5.85918 6.42009 5.89851 6.39876 5.86985 6.44476C5.86985 6.44809 5.86251 6.4521 5.85918 6.45543C5.85185 6.45876 5.84851 6.45876 5.84451 6.46276C5.84118 6.4701 5.83718 6.47343 5.83718 6.48076C5.83718 6.48809 5.83384 6.49876 5.83718 6.50943C5.83718 6.51676 5.84451 6.52343 5.84785 6.52743C5.85518 6.53076 5.85851 6.53076 5.86584 6.52743C5.86918 6.52743 5.87318 6.52009 5.87651 6.51676C5.88718 6.51343 5.89785 6.50943 5.90518 6.50609C5.91585 6.49876 5.93051 6.49209 5.93718 6.48076C5.94451 6.47409 5.94451 6.46276 5.94451 6.45209C5.94784 6.44476 5.94784 6.43809 5.94784 6.43076C5.95118 6.42343 5.95518 6.41676 5.95518 6.40943C5.96251 6.39543 5.97318 6.38076 5.97318 6.36676C5.97651 6.35943 5.96584 6.35276 5.96584 6.34209C5.96584 6.33476 5.97318 6.33143 5.97318 6.32743C5.97651 6.31676 5.97651 6.30609 5.98384 6.29543C5.99118 6.28143 6.00518 6.26343 6.01584 6.24876C6.02318 6.24143 6.03384 6.24143 6.03718 6.23809C6.04451 6.23476 6.04784 6.23076 6.05118 6.22409C6.05451 6.21676 6.05118 6.20609 6.05451 6.19543C6.05784 6.18476 6.06851 6.17743 6.07251 6.16676C6.07584 6.16009 6.08318 6.15609 6.08318 6.14543C6.08318 6.14209 6.07585 6.13809 6.07585 6.13476C6.06851 6.12743 6.06518 6.12076 6.06185 6.10943C6.06185 6.10609 6.05851 6.10209 6.06185 6.09876C6.07251 6.09876 6.08318 6.09876 6.09051 6.10609C6.10118 6.11676 6.09784 6.13076 6.10451 6.14143C6.11185 6.14876 6.11851 6.15209 6.12251 6.15209C6.12984 6.15209 6.12584 6.14476 6.12584 6.14143C6.12918 6.13809 6.12585 6.12676 6.12918 6.13076C6.13651 6.13076 6.13651 6.14143 6.14318 6.14543C6.14651 6.14543 6.15051 6.13476 6.15384 6.13809C6.15718 6.14143 6.15718 6.14876 6.15384 6.15609C6.15051 6.15943 6.13584 6.15609 6.13251 6.16343C6.12918 6.16676 6.13584 6.17743 6.13251 6.18476C6.12918 6.19209 6.12185 6.19543 6.11451 6.20609C6.11118 6.20943 6.11451 6.21676 6.10718 6.22076C6.09651 6.22809 6.07851 6.22076 6.07185 6.23143C6.06451 6.24209 6.07851 6.26009 6.07518 6.27076C6.07184 6.27809 6.05718 6.27409 6.05051 6.27809C6.04318 6.28143 6.03985 6.28876 6.03651 6.29209C6.02585 6.30276 6.00784 6.31009 5.99718 6.32076C5.99384 6.32809 5.99384 6.33876 5.99718 6.34543C6.00384 6.35276 6.01851 6.35609 6.02584 6.34876C6.03318 6.34876 6.03318 6.33476 6.03984 6.32743C6.04718 6.3201 6.05785 6.31343 6.06518 6.30609C6.07918 6.29876 6.09051 6.29209 6.10051 6.28143C6.11118 6.2741 6.11451 6.26343 6.12185 6.25609C6.13251 6.24543 6.14318 6.24543 6.15051 6.23809C6.16118 6.22409 6.16851 6.20943 6.17518 6.19143C6.18251 6.18409 6.18984 6.17343 6.18984 6.16276C6.19651 6.1481 6.19651 6.1341 6.20051 6.1201C6.20051 6.11676 6.19718 6.10943 6.20051 6.10609C6.20385 6.09876 6.21451 6.09876 6.21851 6.09143C6.22184 6.08809 6.22184 6.08076 6.22584 6.07743C6.23318 6.06676 6.24384 6.06676 6.24718 6.05609C6.25051 6.04876 6.23984 6.03809 6.23984 6.03076C6.23984 6.02743 6.23985 6.02009 6.24318 6.02009C6.25051 6.02009 6.25718 6.02743 6.26851 6.02743C6.27584 6.0241 6.27918 6.01276 6.28251 6.00943C6.28984 5.99876 6.29651 5.99143 6.30384 5.98476C6.31784 5.97743 6.33251 5.97743 6.34651 5.9701C6.35384 5.96276 6.36051 5.95209 6.36784 5.94143C6.37118 5.93409 6.37851 5.92743 6.38185 5.92009C6.38518 5.9061 6.38184 5.89143 6.38518 5.88076C6.38851 5.86276 6.39918 5.84876 6.39918 5.83076C6.40251 5.82009 6.39184 5.81609 6.39184 5.80543C6.39518 5.79476 6.40985 5.78409 6.40985 5.77009C6.40985 5.76276 6.39918 5.75543 6.39918 5.74876C6.39584 5.73476 6.39585 5.72009 6.39585 5.70609C6.39585 5.69209 6.39584 5.68076 6.39918 5.66676C6.39918 5.64876 6.40251 5.63476 6.40985 5.61676C6.41318 5.60609 6.43118 5.60209 6.43118 5.58809C6.43118 5.58076 6.41718 5.57743 6.40985 5.57009V5.55943C6.41318 5.55609 6.41718 5.55276 6.42051 5.54876C6.43451 5.54876 6.44918 5.57409 6.46318 5.57009C6.48451 5.56676 6.48118 5.53476 6.49184 5.52009C6.50584 5.50609 6.52051 5.49876 6.53851 5.48809C6.55651 5.47409 6.57784 5.46276 6.59918 5.44876C6.60984 5.44143 6.62051 5.43076 6.63118 5.42343C6.63851 5.41609 6.64518 5.40943 6.65651 5.40543C6.66718 5.39809 6.68118 5.39476 6.69585 5.38743C6.70651 5.38076 6.71718 5.36609 6.73185 5.36609C6.74585 5.36276 6.76384 5.37343 6.77851 5.37343C6.79318 5.37343 6.81051 5.37343 6.82118 5.36609C6.83584 5.35943 6.83918 5.34143 6.84984 5.33409C6.86051 5.32343 6.87851 5.32343 6.88918 5.31276C6.89651 5.30543 6.89251 5.29476 6.89984 5.28409C6.90318 5.27676 6.90718 5.27009 6.91451 5.26609C6.92518 5.26609 6.93584 5.27343 6.94651 5.27676C6.95384 5.27676 6.96451 5.28409 6.97518 5.28409C6.98251 5.28409 6.98918 5.27009 6.99984 5.26609C7.00718 5.26609 7.01784 5.26609 7.02518 5.26943C7.03251 5.27276 7.03251 5.28343 7.03918 5.29076C7.04251 5.29409 7.04984 5.29809 7.05718 5.29809C7.07518 5.29476 7.09651 5.29476 7.11118 5.28343C7.11784 5.28009 7.11451 5.26543 7.12185 5.26209C7.12918 5.26209 7.13251 5.27609 7.13984 5.28009C7.15051 5.28343 7.16851 5.28343 7.17918 5.28743C7.18985 5.29076 7.19318 5.30543 7.20051 5.30209C7.21851 5.29876 7.23584 5.28743 7.24718 5.27343C7.25451 5.26276 7.24718 5.24476 7.25451 5.23809C7.26184 5.22743 7.27584 5.22743 7.28318 5.22009C7.30851 5.20943 7.33318 5.20209 7.35118 5.18476C7.35851 5.18143 7.35451 5.17009 7.35451 5.16343C7.35451 5.15676 7.34384 5.15609 7.34384 5.15276C7.34384 5.14543 7.35118 5.13476 7.35784 5.13476C7.36451 5.13476 7.37184 5.15276 7.37584 5.14543C7.38318 5.13809 7.37251 5.12409 7.37584 5.10943C7.37584 5.10609 7.37918 5.09876 7.38318 5.09143C7.39385 5.07743 7.40451 5.06276 7.41851 5.04876C7.42918 5.03409 7.44718 5.02009 7.45785 5.00609C7.46118 4.99876 7.46118 4.98809 7.46851 4.98076C7.48318 4.96276 7.50051 4.94143 7.51518 4.92343C7.53318 4.90543 7.55051 4.89143 7.56184 4.87343C7.57251 4.85543 7.57251 4.83409 7.57584 4.81276C7.57918 4.79809 7.57585 4.78076 7.57918 4.76276C7.58251 4.74476 7.58584 4.72676 7.59718 4.71276C7.60451 4.69143 7.61851 4.67343 7.62918 4.65543C7.63985 4.64476 7.65451 4.63409 7.65785 4.61943C7.66518 4.60543 7.65785 4.58743 7.66118 4.57343C7.66451 4.54143 7.67518 4.51276 7.68585 4.48743C7.69318 4.46209 7.70718 4.44143 7.71451 4.41943C7.71784 4.41209 7.72518 4.40476 7.72518 4.39809C7.72518 4.38343 7.71851 4.37276 7.71851 4.35876C7.71851 4.34809 7.72918 4.33743 7.72918 4.32676C7.72585 4.30876 7.71118 4.29476 7.71118 4.27676C7.71118 4.26276 7.71851 4.24476 7.72518 4.23009C7.72851 4.20543 7.74318 4.18409 7.74318 4.16209C7.74318 4.14009 7.72185 4.12676 7.72185 4.10476C7.72185 4.08676 7.73651 4.06943 7.74318 4.05076C7.74651 4.04009 7.74651 4.02943 7.75051 4.02209C7.75785 4.01476 7.77185 4.01143 7.77185 4.00409C7.77185 3.99343 7.75785 3.98609 7.75785 3.97543C7.75785 3.96876 7.76851 3.95743 7.77585 3.96143C7.78984 3.96876 7.78318 3.99343 7.79718 4.00076C7.80785 4.00809 7.82585 3.99743 7.83651 3.99009C7.84718 3.98276 7.85451 3.96876 7.86518 3.96143C7.88318 3.94343 7.90451 3.93609 7.91851 3.91876C7.93318 3.90476 7.93985 3.88343 7.95051 3.86543V3.86209C7.95051 3.85143 7.95385 3.83676 7.95785 3.82609C7.96118 3.81543 7.97251 3.80476 7.97584 3.79076C7.97918 3.78343 7.97251 3.77609 7.97584 3.77276C7.98318 3.76943 7.99051 3.78343 7.99385 3.78009C8.00451 3.77276 8.00451 3.75543 8.01185 3.74476C8.02251 3.73409 8.03651 3.72343 8.05118 3.71276C8.07251 3.69143 8.09385 3.67009 8.11918 3.65209C8.12985 3.64476 8.14051 3.63809 8.15118 3.62676C8.15851 3.61943 8.15451 3.60543 8.16185 3.59809C8.16918 3.59476 8.17984 3.59809 8.18718 3.59476C8.19451 3.58743 8.20118 3.58009 8.20518 3.56943C8.20851 3.56609 8.20185 3.55543 8.20518 3.54809C8.21918 3.53009 8.24118 3.51943 8.25518 3.50209C8.26985 3.48743 8.28384 3.47009 8.29051 3.45209C8.30518 3.43076 8.30851 3.40943 8.31918 3.38409C8.32984 3.35876 8.34451 3.33409 8.35118 3.30543C8.35451 3.27676 8.35451 3.24809 8.35118 3.22343C8.35118 3.18743 8.35118 3.15543 8.34785 3.12009C8.34451 3.10209 8.34051 3.08076 8.33718 3.05943C8.33385 3.04543 8.33384 3.03076 8.32984 3.01276C8.31918 2.98409 8.30851 2.95543 8.29451 2.93076C8.28718 2.92009 8.27651 2.91276 8.26584 2.90943C8.23718 2.89876 8.20851 2.89543 8.17984 2.89143C8.15851 2.88809 8.13718 2.89876 8.11584 2.89476C8.09118 2.88743 8.06985 2.86943 8.04785 2.85876C8.02251 2.84076 8.00518 2.82343 7.98385 2.80876C7.95851 2.79076 7.93718 2.77343 7.91584 2.75143C7.89451 2.73343 7.87651 2.71209 7.85518 2.69076C7.83718 2.67676 7.81918 2.65876 7.79785 2.64809C7.77651 2.63409 7.74784 2.63409 7.72251 2.62276C7.70851 2.61209 7.69385 2.59809 7.67651 2.59076C7.65518 2.58343 7.63385 2.58343 7.61251 2.58009C7.59118 2.58009 7.56584 2.58343 7.54451 2.58743C7.52984 2.59076 7.51584 2.60543 7.49785 2.60543C7.47985 2.60209 7.46585 2.58409 7.44784 2.57676C7.43718 2.57343 7.42318 2.56609 7.40851 2.56609C7.39451 2.56276 7.37651 2.57343 7.36251 2.56943C7.35518 2.56609 7.35184 2.55143 7.34451 2.55143C7.32984 2.54409 7.31251 2.55143 7.29784 2.54809C7.29051 2.54476 7.29051 2.53009 7.28384 2.52676C7.26585 2.52009 7.24451 2.52009 7.22651 2.51276C7.22318 2.51276 7.21918 2.50209 7.21184 2.50209C7.20451 2.50543 7.20851 2.52343 7.20118 2.52676C7.19051 2.53009 7.17984 2.52343 7.17251 2.51609C7.16584 2.51276 7.16918 2.49476 7.16184 2.49809C7.15118 2.50476 7.15451 2.52276 7.14785 2.53343C7.14051 2.53676 7.13385 2.53676 7.12651 2.53343C7.11918 2.53343 7.11251 2.52609 7.10851 2.52276C7.10118 2.51943 7.09451 2.51543 7.08718 2.51943C7.07984 2.53009 7.07984 2.54809 7.07651 2.56209C7.06984 2.57276 7.06585 2.58343 7.05518 2.59409C7.04785 2.60076 7.03384 2.60476 7.02651 2.61543C7.01918 2.62943 7.02318 2.67609 7.01584 2.66143C7.00851 2.64343 7.01584 2.62209 7.02251 2.60409C7.02251 2.59676 7.02984 2.58609 7.03318 2.57543C7.03651 2.56809 7.03318 2.56076 7.03651 2.55409C7.03984 2.54343 7.04718 2.53276 7.05451 2.52209C7.05784 2.51476 7.06518 2.50809 7.07251 2.50076C7.07584 2.49743 7.08651 2.49343 7.08651 2.49009C7.08318 2.48276 7.07584 2.47609 7.06851 2.47609C7.06118 2.47943 7.05451 2.49743 7.04718 2.49009C7.03984 2.48676 7.05051 2.47609 7.05451 2.46876C7.05784 2.46143 7.06851 2.45809 7.06851 2.45076C7.06851 2.44009 7.06118 2.43276 7.05451 2.42543C7.05118 2.42209 7.03984 2.42543 7.03651 2.42209C7.02918 2.41143 7.02584 2.39676 7.01851 2.39009C7.01518 2.38676 7.00784 2.39009 7.00451 2.38676C6.99718 2.38676 6.99385 2.37609 6.98651 2.37943C6.97585 2.37943 6.96851 2.38676 6.96518 2.39743C6.96185 2.40809 6.97918 2.42609 6.96851 2.42943C6.95451 2.43276 6.94718 2.41143 6.94318 2.40076C6.93985 2.39009 6.95718 2.38276 6.95718 2.37209C6.95385 2.36543 6.94651 2.36143 6.93584 2.36143C6.93251 2.35809 6.93251 2.36876 6.92851 2.36876C6.92118 2.36543 6.92851 2.35076 6.92118 2.35076C6.91051 2.34743 6.89984 2.35809 6.88918 2.35809C6.87851 2.35809 6.86785 2.34409 6.85718 2.34409C6.85384 2.34409 6.84984 2.35809 6.84651 2.35476C6.83918 2.34743 6.84651 2.32943 6.83918 2.32609C6.82851 2.32276 6.81784 2.34409 6.80718 2.34009C6.79651 2.33676 6.79651 2.31143 6.78185 2.30476C6.76385 2.29409 6.74651 2.29409 6.72451 2.29009C6.70651 2.28276 6.68918 2.27209 6.67118 2.26876C6.66384 2.26876 6.68185 2.28676 6.67451 2.28343C6.66051 2.28343 6.64585 2.26543 6.63185 2.26209C6.62118 2.26209 6.61784 2.27609 6.61384 2.27609C6.60318 2.28343 6.59251 2.27943 6.58518 2.28676C6.57451 2.29009 6.57118 2.30076 6.56384 2.30809L6.53185 2.34009C6.52518 2.34743 6.51051 2.35409 6.51051 2.36143C6.51051 2.37943 6.54251 2.39009 6.53185 2.40076C6.52518 2.41143 6.50651 2.38609 6.49651 2.38609C6.48251 2.38943 6.47518 2.40743 6.46451 2.41476C6.45718 2.41809 6.45385 2.41476 6.44984 2.41476C6.43584 2.41476 6.42118 2.41143 6.40718 2.41809C6.39251 2.42143 6.38184 2.43943 6.36784 2.44676C6.35718 2.45009 6.34651 2.44676 6.33584 2.44676C6.32185 2.44676 6.30718 2.43609 6.29318 2.43943C6.28251 2.44676 6.28585 2.47543 6.27185 2.47143C6.25051 2.47143 6.24718 2.43609 6.22918 2.43209C6.21851 2.42876 6.21851 2.45743 6.20785 2.46076C6.19718 2.46409 6.18984 2.45009 6.18984 2.43943C6.19318 2.42876 6.21451 2.42876 6.22185 2.41409C6.22518 2.40343 6.22518 2.38543 6.22185 2.37476C6.21851 2.36409 6.21451 2.34943 6.20384 2.34943C6.17518 2.34943 6.15051 2.36743 6.12185 2.37809C6.09651 2.38543 6.06851 2.39943 6.04318 2.40343C6.02518 2.40676 6.00785 2.41409 5.99318 2.40343C5.98585 2.40009 6.00384 2.38543 6.01118 2.38209C6.02918 2.37476 6.05385 2.38543 6.07185 2.37476C6.08584 2.36076 6.08584 2.33876 6.09318 2.31743C6.09318 2.31409 6.09318 2.30676 6.09651 2.30343C6.11118 2.27809 6.12518 2.24943 6.14318 2.22809C6.16451 2.19943 6.18584 2.17809 6.21118 2.15343C6.22184 2.14276 6.23985 2.13543 6.25051 2.12143C6.27185 2.10343 6.28585 2.08209 6.30051 2.06076C6.31451 2.04276 6.33251 2.02143 6.33584 1.99676C6.33584 1.98276 6.32518 1.96809 6.31451 1.96076C6.29318 1.95009 6.26851 1.96409 6.25051 1.95343C6.23585 1.94609 6.23251 1.92876 6.22918 1.91409C6.22585 1.90676 6.23251 1.90009 6.23251 1.88943C6.22918 1.87543 6.22185 1.86076 6.21451 1.84676C6.20385 1.82543 6.19318 1.80743 6.18584 1.78276C6.18251 1.76143 6.18251 1.74009 6.17851 1.71876C6.17518 1.70409 6.17851 1.68676 6.17118 1.67209C6.16051 1.65076 6.14584 1.61876 6.12118 1.61476C6.10718 1.61476 6.13918 1.65076 6.13185 1.66476C6.12451 1.67543 6.11385 1.64009 6.10318 1.64343C6.07785 1.66143 6.06385 1.69343 6.04585 1.71876C6.02785 1.75076 6.01051 1.78276 5.99251 1.81543C5.98518 1.83343 5.97784 1.84743 5.97118 1.86143C5.96385 1.87609 5.96385 1.89343 5.95318 1.90076C5.93851 1.91143 5.91718 1.91876 5.89918 1.91476C5.88118 1.91143 5.87784 1.89009 5.86384 1.88609C5.85651 1.88276 5.84984 1.89676 5.84251 1.89676C5.83518 1.89676 5.82851 1.88276 5.82118 1.88276C5.79984 1.88609 5.78918 1.91143 5.77118 1.91143C5.75318 1.91476 5.74251 1.89676 5.72451 1.89009C5.72118 1.89009 5.71385 1.90076 5.71051 1.89676C5.69251 1.88609 5.68185 1.85409 5.66051 1.85409C5.63185 1.85076 5.60318 1.88276 5.57451 1.88609C5.56051 1.88609 5.54918 1.86076 5.53918 1.86476C5.52118 1.86809 5.50718 1.88276 5.50318 1.90076C5.50318 1.91876 5.52784 1.93276 5.52784 1.95076C5.52784 1.95809 5.51384 1.96476 5.50651 1.96143C5.48851 1.95409 5.47785 1.92943 5.46051 1.92609C5.45318 1.92276 5.46785 1.94409 5.46051 1.95143C5.45318 1.95876 5.43518 1.96543 5.42118 1.96543C5.41051 1.96543 5.39985 1.95143 5.38518 1.95143C5.36718 1.94809 5.34251 1.94409 5.32451 1.95476C5.31718 1.95809 5.33518 1.97609 5.32451 1.98009C5.30651 1.99076 5.27785 1.98009 5.25651 1.98743C5.24918 1.98743 5.26385 2.00143 5.25651 2.00543C5.24585 2.00876 5.23518 1.99476 5.22785 1.99809C5.20651 2.00876 5.20251 2.03743 5.18118 2.04476C5.16718 2.05209 5.14518 2.04143 5.13118 2.03409C5.10985 2.02343 5.08851 2.00943 5.07385 1.99143C5.06318 1.98076 5.05918 1.96609 5.05584 1.95209C5.05584 1.93743 5.07051 1.92343 5.06651 1.90943C5.06318 1.89876 5.04118 1.89543 5.03785 1.88409C5.03118 1.86609 5.02718 1.84143 5.02718 1.82343C5.03051 1.81276 5.04518 1.80943 5.04851 1.80209C5.05585 1.79143 5.04518 1.78076 5.05185 1.77009C5.06251 1.75609 5.08718 1.75609 5.09118 1.74143C5.09851 1.72009 5.08385 1.70209 5.08051 1.68076C5.07718 1.66609 5.06985 1.65209 5.06651 1.64143C5.05918 1.63409 5.05585 1.62343 5.04851 1.62009C5.04118 1.61676 5.02718 1.62343 5.01985 1.61676C5.00585 1.60276 4.99851 1.58476 4.99851 1.56676C4.99518 1.55276 5.01318 1.54209 5.00918 1.52743C5.00585 1.52009 4.99118 1.51343 4.98051 1.51343C4.96985 1.51676 4.96651 1.53143 4.95584 1.53876C4.94851 1.54209 4.94118 1.54209 4.93451 1.53876C4.92384 1.53543 4.91651 1.51343 4.91318 1.52076C4.90584 1.53143 4.92385 1.54209 4.92385 1.55276C4.92718 1.56343 4.92718 1.57409 4.92051 1.58143C4.90984 1.59543 4.89585 1.60609 4.87785 1.61343C4.85985 1.62409 4.83518 1.62409 4.81718 1.63476C4.80651 1.64209 4.80651 1.66009 4.79585 1.66676C4.78185 1.67409 4.76051 1.67409 4.74585 1.67743C4.72451 1.68076 4.70651 1.67009 4.68851 1.67743C4.67051 1.68476 4.65651 1.69543 4.64585 1.70943C4.64251 1.72009 4.65318 1.73076 4.64918 1.74143C4.64585 1.74876 4.63518 1.74476 4.63118 1.74143C4.62051 1.73409 4.61718 1.71676 4.60584 1.71276C4.59518 1.70543 4.58118 1.71276 4.56985 1.70943C4.54851 1.70609 4.52718 1.69876 4.50918 1.68809C4.49518 1.68076 4.49118 1.65276 4.47318 1.65276C4.45518 1.65276 4.43785 1.67409 4.42718 1.69209C4.41985 1.70276 4.42384 1.72409 4.43451 1.73143C4.44851 1.74209 4.47385 1.72409 4.48785 1.73876C4.49851 1.74543 4.49518 1.76343 4.49118 1.77809C4.48785 1.78876 4.48051 1.79609 4.47318 1.80676C4.46985 1.81743 4.46251 1.82809 4.46251 1.84209C4.46251 1.86009 4.46585 1.87409 4.46985 1.89209C4.47318 1.90276 4.47718 1.91009 4.48451 1.91676C4.48784 1.92409 4.49851 1.92409 4.50584 1.92409C4.51318 1.92743 4.52384 1.93809 4.53451 1.93476C4.54184 1.93476 4.54851 1.92009 4.55584 1.92009C4.56984 1.92343 4.58785 1.94143 4.57718 1.94876C4.55918 1.96676 4.52718 1.94876 4.50918 1.96676C4.48451 1.98476 4.49118 2.03076 4.46651 2.04876C4.45585 2.05943 4.45585 2.02009 4.44118 2.02009C4.42651 2.02009 4.42318 2.04543 4.41251 2.05543C4.38785 2.07676 4.36251 2.09143 4.34118 2.10943C4.33051 2.12009 4.32718 2.14876 4.31251 2.14476C4.29451 2.14476 4.30518 2.11276 4.29118 2.10209C4.28051 2.09476 4.26585 2.09143 4.25518 2.10209C4.24451 2.11276 4.25518 2.14876 4.23718 2.14876C4.21251 2.15209 4.19785 2.12343 4.17651 2.10943C4.15851 2.09876 4.13718 2.09143 4.12651 2.07343C4.11918 2.06609 4.12985 2.05209 4.12651 2.04143C4.11251 2.01276 4.10118 1.97343 4.07318 1.96276C4.05185 1.95543 4.04785 2.00543 4.02651 2.00943C4.01251 2.01276 4.00851 1.98409 3.99451 1.97743C3.98384 1.97409 3.96918 1.97409 3.96585 1.98476C3.96251 1.99543 3.99118 2.01676 3.97651 2.02076C3.92985 2.03876 3.87985 2.02809 3.82985 2.02809C3.81185 2.02809 3.78318 2.01409 3.77651 2.03143C3.76585 2.06009 3.77318 2.09543 3.78718 2.12743C3.79051 2.13809 3.81251 2.12743 3.82251 2.12743C3.83318 2.12409 3.84385 2.11676 3.85118 2.12409C3.86185 2.13143 3.85851 2.14943 3.85851 2.15943C3.85518 2.17009 3.84785 2.18476 3.83718 2.18476C3.82651 2.18476 3.81918 2.15943 3.80518 2.15943C3.78718 2.16276 3.76251 2.17343 3.75518 2.19143C3.74451 2.22009 3.75185 2.25209 3.75518 2.28076C3.75851 2.29143 3.76585 2.29876 3.77651 2.30943C3.78385 2.31276 3.79785 2.31276 3.80185 2.32409C3.81251 2.33476 3.80918 2.34876 3.81585 2.36343C3.81918 2.37409 3.82985 2.38143 3.82985 2.39209C3.82985 2.41009 3.81918 2.42409 3.81918 2.44209C3.81918 2.45609 3.82651 2.47409 3.82251 2.48809C3.81185 2.56676 3.79785 2.64876 3.77985 2.72743C3.77251 2.75943 3.77251 2.79876 3.75118 2.82009C3.74051 2.83076 3.72251 2.79143 3.70851 2.79543C3.68718 2.79876 3.67985 2.82743 3.65851 2.83076C3.64785 2.83409 3.63718 2.81276 3.62651 2.81676C3.61585 2.81676 3.61251 2.83076 3.60185 2.83476C3.59118 2.84143 3.57651 2.83143 3.56651 2.83476C3.54518 2.84543 3.53051 2.86343 3.51251 2.87743C3.49451 2.89209 3.47318 2.89876 3.45918 2.91676C3.44118 2.93476 3.43051 2.95943 3.42318 2.98076C3.41585 2.99876 3.41251 3.01676 3.40918 3.03409C3.40918 3.04876 3.41251 3.06276 3.40918 3.07676C3.40585 3.09476 3.40585 3.11609 3.39118 3.13009C3.38385 3.14476 3.35918 3.13743 3.35185 3.15143C3.34118 3.16943 3.34451 3.19076 3.34451 3.20876C3.34451 3.21943 3.35185 3.23409 3.34451 3.24076C3.33718 3.25143 3.31918 3.24409 3.31585 3.25476C3.31251 3.26209 3.31918 3.27276 3.32318 3.28009C3.33051 3.28743 3.34118 3.28743 3.34851 3.29409C3.35518 3.30143 3.35185 3.31543 3.35518 3.32276C3.35851 3.33343 3.36251 3.34409 3.36985 3.35143L3.37051 3.35343ZM6.11851 2.30743C6.12918 2.28943 6.13984 2.26809 6.15451 2.25009C6.16518 2.23943 6.18318 2.20743 6.19385 2.21809C6.20851 2.23609 6.19051 2.26476 6.18318 2.28209C6.17584 2.30343 6.16185 2.32476 6.14385 2.33943C6.12985 2.35343 6.10451 2.38943 6.09051 2.37143C6.07251 2.35343 6.10851 2.32876 6.11918 2.30743H6.11851ZM6.23651 2.25743C6.23318 2.27143 6.24718 2.28609 6.24718 2.30009C6.24384 2.31409 6.22584 2.32143 6.22584 2.33209C6.22251 2.35009 6.22585 2.37143 6.23651 2.38609C6.24385 2.39343 6.26184 2.38609 6.26851 2.39343C6.27584 2.40076 6.26118 2.41476 6.26851 2.41876C6.28651 2.42609 6.30451 2.41876 6.31851 2.42209C6.32918 2.42209 6.33651 2.43276 6.34718 2.42943C6.35451 2.42943 6.35051 2.41543 6.35785 2.40809C6.37185 2.40076 6.38651 2.40476 6.39718 2.39743C6.41118 2.39409 6.41851 2.37943 6.43251 2.37943C6.43984 2.37943 6.44318 2.39343 6.45384 2.39343C6.46118 2.39343 6.47184 2.38609 6.47518 2.37543C6.47518 2.36476 6.45718 2.34676 6.46451 2.33609C6.47518 2.31809 6.50384 2.31809 6.51851 2.30009C6.53251 2.28209 6.56451 2.25743 6.55051 2.23609C6.53251 2.21143 6.48651 2.20409 6.45785 2.21809C6.43651 2.23209 6.45784 2.27543 6.43984 2.29676C6.43251 2.30743 6.42518 2.27143 6.42518 2.25743C6.42518 2.25076 6.44318 2.25409 6.44318 2.24676C6.44318 2.23609 6.43584 2.22543 6.42851 2.22143C6.40385 2.21076 6.37851 2.21409 6.35384 2.21409C6.33251 2.21076 6.30718 2.21076 6.28585 2.21409C6.27518 2.21743 6.26784 2.22876 6.25718 2.23543C6.24985 2.24276 6.23585 2.24609 6.23585 2.25676L6.23651 2.25743ZM6.30451 2.19343C6.32585 2.19009 6.34718 2.19676 6.36185 2.18676C6.37251 2.17943 6.38318 2.15809 6.37584 2.15076C6.35784 2.13609 6.32918 2.15409 6.31185 2.14343C6.30451 2.13609 6.33318 2.11143 6.32251 2.11143C6.30118 2.11143 6.28318 2.12543 6.26851 2.14009C6.25784 2.14743 6.24718 2.15809 6.24718 2.17209C6.24384 2.18276 6.24718 2.19676 6.25785 2.20076C6.26518 2.20409 6.26518 2.18676 6.26851 2.17943C6.27584 2.17209 6.27585 2.16143 6.28651 2.15809C6.28985 2.15476 6.30051 2.16143 6.29718 2.16876C6.29718 2.17943 6.27585 2.18676 6.27918 2.19343C6.27918 2.20409 6.29718 2.19343 6.30451 2.19343ZM6.20851 2.19009C6.19384 2.19343 6.20118 2.22543 6.20851 2.23609C6.21518 2.24676 6.23718 2.23943 6.23718 2.23276C6.23718 2.21476 6.22651 2.18676 6.20851 2.19009Z" fill="#294292"/>
</g>
</g>
</svg>
